<mxfile host="app.diagrams.net" agent="Mozilla/5.0 (Macintosh; Intel Mac OS X 10_15_7) AppleWebKit/537.36 (KHTML, like Gecko) Chrome/131.0.0.0 Safari/537.36" version="24.9.0">
  <diagram name="Страница — 1" id="wUF2aN7Pa6_avEkmTaAu">
    <mxGraphModel dx="1434" dy="1954" grid="1" gridSize="10" guides="1" tooltips="1" connect="1" arrows="1" fold="1" page="1" pageScale="1" pageWidth="827" pageHeight="1169" math="0" shadow="0">
      <root>
        <mxCell id="0" />
        <mxCell id="1" parent="0" />
        <mxCell id="3UJTTaH0pHCjInENSC5y-12" style="edgeStyle=orthogonalEdgeStyle;rounded=0;orthogonalLoop=1;jettySize=auto;html=1;exitX=0.5;exitY=1;exitDx=0;exitDy=0;entryX=0.5;entryY=0;entryDx=0;entryDy=0;" edge="1" parent="1" source="3UJTTaH0pHCjInENSC5y-1" target="3UJTTaH0pHCjInENSC5y-2">
          <mxGeometry relative="1" as="geometry" />
        </mxCell>
        <mxCell id="3UJTTaH0pHCjInENSC5y-1" value="Start checking connection" style="shape=parallelogram;perimeter=parallelogramPerimeter;whiteSpace=wrap;html=1;fixedSize=1;" vertex="1" parent="1">
          <mxGeometry x="300" y="-1120" width="180" height="60" as="geometry" />
        </mxCell>
        <mxCell id="3UJTTaH0pHCjInENSC5y-3" style="edgeStyle=orthogonalEdgeStyle;rounded=0;orthogonalLoop=1;jettySize=auto;html=1;exitX=0;exitY=0.5;exitDx=0;exitDy=0;" edge="1" parent="1" source="3UJTTaH0pHCjInENSC5y-2" target="3UJTTaH0pHCjInENSC5y-4">
          <mxGeometry relative="1" as="geometry">
            <mxPoint x="250" y="-980" as="targetPoint" />
          </mxGeometry>
        </mxCell>
        <mxCell id="3UJTTaH0pHCjInENSC5y-10" value="No" style="edgeLabel;html=1;align=center;verticalAlign=middle;resizable=0;points=[];" vertex="1" connectable="0" parent="3UJTTaH0pHCjInENSC5y-3">
          <mxGeometry x="-0.4909" y="2" relative="1" as="geometry">
            <mxPoint x="-11" y="-2" as="offset" />
          </mxGeometry>
        </mxCell>
        <mxCell id="3UJTTaH0pHCjInENSC5y-6" style="edgeStyle=orthogonalEdgeStyle;rounded=0;orthogonalLoop=1;jettySize=auto;html=1;exitX=0.5;exitY=1;exitDx=0;exitDy=0;" edge="1" parent="1" source="3UJTTaH0pHCjInENSC5y-2">
          <mxGeometry relative="1" as="geometry">
            <mxPoint x="390" y="-900" as="targetPoint" />
          </mxGeometry>
        </mxCell>
        <mxCell id="3UJTTaH0pHCjInENSC5y-9" value="Yes" style="edgeLabel;html=1;align=center;verticalAlign=middle;resizable=0;points=[];" vertex="1" connectable="0" parent="3UJTTaH0pHCjInENSC5y-6">
          <mxGeometry x="-0.3087" y="1" relative="1" as="geometry">
            <mxPoint as="offset" />
          </mxGeometry>
        </mxCell>
        <mxCell id="3UJTTaH0pHCjInENSC5y-2" value="Is transmission going?" style="rhombus;whiteSpace=wrap;html=1;" vertex="1" parent="1">
          <mxGeometry x="285" y="-1020" width="210" height="80" as="geometry" />
        </mxCell>
        <mxCell id="3UJTTaH0pHCjInENSC5y-4" value="500 miliseconds" style="strokeWidth=2;html=1;shape=mxgraph.flowchart.delay;whiteSpace=wrap;" vertex="1" parent="1">
          <mxGeometry x="130" y="-995" width="100" height="30" as="geometry" />
        </mxCell>
        <mxCell id="3UJTTaH0pHCjInENSC5y-14" value="Yes" style="edgeStyle=orthogonalEdgeStyle;rounded=0;orthogonalLoop=1;jettySize=auto;html=1;" edge="1" parent="1" source="3UJTTaH0pHCjInENSC5y-7">
          <mxGeometry relative="1" as="geometry">
            <mxPoint x="390" y="-770" as="targetPoint" />
          </mxGeometry>
        </mxCell>
        <mxCell id="3UJTTaH0pHCjInENSC5y-7" value="Is the latest fragment&amp;nbsp;&lt;div&gt;received more than 3 seconds ago?&lt;/div&gt;" style="rhombus;whiteSpace=wrap;html=1;" vertex="1" parent="1">
          <mxGeometry x="265" y="-900" width="250" height="90" as="geometry" />
        </mxCell>
        <mxCell id="3UJTTaH0pHCjInENSC5y-8" style="edgeStyle=orthogonalEdgeStyle;rounded=0;orthogonalLoop=1;jettySize=auto;html=1;exitX=0;exitY=0.5;exitDx=0;exitDy=0;entryX=0.5;entryY=1;entryDx=0;entryDy=0;entryPerimeter=0;" edge="1" parent="1" source="3UJTTaH0pHCjInENSC5y-7" target="3UJTTaH0pHCjInENSC5y-4">
          <mxGeometry relative="1" as="geometry" />
        </mxCell>
        <mxCell id="3UJTTaH0pHCjInENSC5y-11" value="No" style="edgeLabel;html=1;align=center;verticalAlign=middle;resizable=0;points=[];" vertex="1" connectable="0" parent="3UJTTaH0pHCjInENSC5y-8">
          <mxGeometry x="-0.6" y="3" relative="1" as="geometry">
            <mxPoint x="5" y="-3" as="offset" />
          </mxGeometry>
        </mxCell>
        <mxCell id="3UJTTaH0pHCjInENSC5y-13" style="edgeStyle=orthogonalEdgeStyle;rounded=0;orthogonalLoop=1;jettySize=auto;html=1;exitX=0.5;exitY=0;exitDx=0;exitDy=0;exitPerimeter=0;entryX=0.338;entryY=0.138;entryDx=0;entryDy=0;entryPerimeter=0;" edge="1" parent="1" source="3UJTTaH0pHCjInENSC5y-4" target="3UJTTaH0pHCjInENSC5y-2">
          <mxGeometry relative="1" as="geometry">
            <Array as="points">
              <mxPoint x="180" y="-1015" />
              <mxPoint x="356" y="-1015" />
            </Array>
          </mxGeometry>
        </mxCell>
        <mxCell id="3UJTTaH0pHCjInENSC5y-16" style="edgeStyle=orthogonalEdgeStyle;rounded=0;orthogonalLoop=1;jettySize=auto;html=1;exitX=0.5;exitY=1;exitDx=0;exitDy=0;" edge="1" parent="1" source="3UJTTaH0pHCjInENSC5y-15">
          <mxGeometry relative="1" as="geometry">
            <mxPoint x="390" y="-650" as="targetPoint" />
          </mxGeometry>
        </mxCell>
        <mxCell id="3UJTTaH0pHCjInENSC5y-15" value="Sends KeepAlive request 3 times" style="rounded=0;whiteSpace=wrap;html=1;" vertex="1" parent="1">
          <mxGeometry x="330" y="-770" width="120" height="60" as="geometry" />
        </mxCell>
        <mxCell id="3UJTTaH0pHCjInENSC5y-19" style="edgeStyle=orthogonalEdgeStyle;rounded=0;orthogonalLoop=1;jettySize=auto;html=1;exitX=0.5;exitY=1;exitDx=0;exitDy=0;exitPerimeter=0;entryX=0.5;entryY=0;entryDx=0;entryDy=0;" edge="1" parent="1" source="3UJTTaH0pHCjInENSC5y-18" target="3UJTTaH0pHCjInENSC5y-20">
          <mxGeometry relative="1" as="geometry">
            <mxPoint x="390" y="-590" as="targetPoint" />
          </mxGeometry>
        </mxCell>
        <mxCell id="3UJTTaH0pHCjInENSC5y-18" value="3 seconds" style="strokeWidth=2;html=1;shape=mxgraph.flowchart.delay;whiteSpace=wrap;" vertex="1" parent="1">
          <mxGeometry x="340" y="-650" width="100" height="30" as="geometry" />
        </mxCell>
        <mxCell id="3UJTTaH0pHCjInENSC5y-21" style="edgeStyle=orthogonalEdgeStyle;rounded=0;orthogonalLoop=1;jettySize=auto;html=1;exitX=0.5;exitY=1;exitDx=0;exitDy=0;" edge="1" parent="1" source="3UJTTaH0pHCjInENSC5y-20">
          <mxGeometry relative="1" as="geometry">
            <mxPoint x="390" y="-450" as="targetPoint" />
          </mxGeometry>
        </mxCell>
        <mxCell id="3UJTTaH0pHCjInENSC5y-22" value="No" style="edgeLabel;html=1;align=center;verticalAlign=middle;resizable=0;points=[];" vertex="1" connectable="0" parent="3UJTTaH0pHCjInENSC5y-21">
          <mxGeometry x="-0.3759" y="-3" relative="1" as="geometry">
            <mxPoint as="offset" />
          </mxGeometry>
        </mxCell>
        <mxCell id="3UJTTaH0pHCjInENSC5y-26" style="edgeStyle=orthogonalEdgeStyle;rounded=0;orthogonalLoop=1;jettySize=auto;html=1;exitX=0;exitY=0.5;exitDx=0;exitDy=0;entryX=0.24;entryY=1;entryDx=0;entryDy=0;entryPerimeter=0;" edge="1" parent="1" source="3UJTTaH0pHCjInENSC5y-20" target="3UJTTaH0pHCjInENSC5y-4">
          <mxGeometry relative="1" as="geometry">
            <mxPoint x="160" y="-560" as="targetPoint" />
          </mxGeometry>
        </mxCell>
        <mxCell id="3UJTTaH0pHCjInENSC5y-27" value="Yes" style="edgeLabel;html=1;align=center;verticalAlign=middle;resizable=0;points=[];" vertex="1" connectable="0" parent="3UJTTaH0pHCjInENSC5y-26">
          <mxGeometry x="-0.8918" y="-2" relative="1" as="geometry">
            <mxPoint as="offset" />
          </mxGeometry>
        </mxCell>
        <mxCell id="3UJTTaH0pHCjInENSC5y-20" value="Is at least one request&amp;nbsp;&lt;div&gt;responded?&lt;/div&gt;" style="rhombus;whiteSpace=wrap;html=1;" vertex="1" parent="1">
          <mxGeometry x="285" y="-600" width="210" height="80" as="geometry" />
        </mxCell>
        <mxCell id="3UJTTaH0pHCjInENSC5y-25" value="Connection terminated" style="rounded=1;whiteSpace=wrap;html=1;" vertex="1" parent="1">
          <mxGeometry x="330" y="-450" width="120" height="40" as="geometry" />
        </mxCell>
      </root>
    </mxGraphModel>
  </diagram>
</mxfile>
